<?xml version="1.0" standalone="no"?>
<!DOCTYPE svg PUBLIC "-//W3C//DTD SVG 1.1//EN" "http://www.w3.org/Graphics/SVG/1.1/DTD/svg11.dtd">
<svg xmlns="http://www.w3.org/2000/svg" xmlns:xlink="http://www.w3.org/1999/xlink" version="1.1" id="Capa_1" x="0px" y="0px" viewBox="0 0 343 192.9" style="enable-background:new 0 0 343 192.9;" xml:space="preserve" width="343" height="192.89999389648438">
<style type="text/css">
	.st0{fill:none;}
	.st1{fill:#1D1D1B;}
	.st2{font-family:'Museo-900Italic';}
	.st3{font-size:28.2932px;}
	.st4{fill:#D9D9D9;}
	.st5{fill:#E8A744;}
	.st6{fill:#5C7640;}
</style>
<g>
	<g>
		<defs>
			<path id="SVGID_1_" d="M227.5,72.7c5.7,5.7,8.9,13.2,9.1,21.2h-5.8c-16.5,0-29.9-12.4-29.9-27.7c0-0.7,0-1.5,0.1-2.2     c1.6-0.2,3.1-0.4,4.7-0.4C213.9,63.7,221.6,66.9,227.5,72.7z"/>
		</defs>
		<clipPath id="SVGID_00000029014877913309255340000017135343747499315377_">
			<use xlink:href="#SVGID_1_" style="overflow:visible;"/>
		</clipPath>
	</g>
	<rect x="189.8" y="80.3" class="st0" width="47.1" height="24.3"/>
	<text transform="matrix(1 0 0 1 193.9696 100.4912)"><tspan x="0" y="0" class="st1 st2 st3">la</tspan><tspan x="24.8" y="0" class="st1 st2 st3">s </tspan></text>
	<rect x="177.9" y="101.8" class="st0" width="135.3" height="24.1"/>
	<text transform="matrix(1 0 0 1 177.9208 121.9922)"><tspan x="0" y="0" class="st1 st2 st3">e</tspan><tspan x="16" y="0" class="st1 st2 st3">mp</tspan><tspan x="60.8" y="0" class="st1 st2 st3">r</tspan><tspan x="72.6" y="0" class="st1 st2 st3">esa</tspan><tspan x="117.6" y="0" class="st1 st2 st3">s</tspan></text>
	<rect x="172.9" y="124.2" class="st0" width="96" height="22.3"/>
	<text transform="matrix(1 0 0 1 172.9198 144.3965)"><tspan x="0" y="0" class="st1 st2 st3">v</tspan><tspan x="16.5" y="0" class="st1 st2 st3">e</tspan><tspan x="31.9" y="0" class="st1 st2 st3">r</tspan><tspan x="44.2" y="0" class="st1 st2 st3">de</tspan><tspan x="77.9" y="0" class="st1 st2 st3">s</tspan></text>
	<rect x="170.3" y="148.5" class="st1" width="91.9" height="1.1"/>
	<path class="st4" d="M261.4,94.8c-0.3-3.1-0.6-6.3-0.8-9.4c-0.1-0.8-0.3-1.1-1.2-1c-4.1,0.5-7.9-1.7-9.3-5.4   c-1.5-3.9-0.2-7.9,3.5-10.4c0.8-0.6,0.9-1,0.4-1.8c-1.8-2.5-3.6-5.1-5.3-7.6c-0.6-0.9-1.2-0.9-2.1-0.2c-3.2,2.4-7.6,2.2-10.6-0.4   c-3.1-2.6-3.9-7-2-10.6c0.5-1,0.2-1.4-0.6-1.8c-2.6-1.2-5.1-2.5-7.8-3.7c-1.7-0.8-1.8-0.7-2.6,1c-1.8,3.5-5.6,5.3-9.4,4.6   c-3.8-0.8-6.7-4-6.9-8c0-1.1-0.5-1.5-1.5-1.4c-3,0.3-6,0.5-9,0.7c-1.2,0.1-1.5,0.5-1.4,1.7c0.2,2.2-0.3,4.3-1.5,5.9h15.4h0.8   l-0.1,0.8l-3,16.3c1.5,0.1,2.9,0.2,4.4,0.5c16.6,3.1,27.7,19.1,24.7,35.8c-0.2,0.8-0.4,1.7-0.6,2.5h17.2c0.2-0.6,0.4-1.2,0.7-1.8   c1.4-3,3.9-4.7,7.2-4.9C261.1,96.3,261.5,96,261.4,94.8z"/>
	<path class="st5" d="M184.5,47.9c-8.5,0-12.9,2.7-15.6,10L149,113.4c-2.1,6.2-3.7,15.1-3.7,15.1h-0.4c0,0-1.7-8.9-3.9-15.1   L121,57.8c-2-5.4-4.8-8.3-9.7-9.4l0,0l2.3,11.9c0.7,3.3,1,6.7,1,10.1c0,7.2-1.5,14.2-4.4,20.7c-0.8,1.9-1.8,3.7-2.8,5.4l5.7,14.1   l4.1-6.9l0.3-0.6l0.6,0.3l20.8,12.4l0.6,0.3l-0.3,0.6l-6.2,10.4c-2.4,4.1-5.4,7.9-8.8,11.2l4.4,11.1H160L190.3,74   c1-2.7,2.9-3.7,5.8-3.7h8.6l4.1-22.4H184.5z"/>
	<path class="st6" d="M117.8,104.2l-6.2,10.4c-2.7,4.5-6.5,8.3-11.1,11c-4.7,2.7-10.1,4.2-15.5,4.2c-7.5,0-14.7-2.7-20.3-7.6   c5.5-0.5,10.9-1.7,16.1-3.8c6.4-2.6,12.2-6.3,17.2-11c5-4.8,9-10.3,11.7-16.5c2.9-6.5,4.4-13.4,4.4-20.4c0-3.3-0.3-6.7-1-10   l-2.3-11.9l-11.7-3.1c-4.5-1.2-9.3-1.8-14-1.8c-7.4,0-14.7,1.5-21.5,4.3c-6.6,2.8-12.5,6.8-17.5,11.8c-5.1,5.1-9,11-11.8,17.5   c-2.9,6.8-4.3,14-4.3,21.5c0,7.4,1.5,14.7,4.3,21.5c2.8,6.6,6.8,12.5,11.8,17.5c5.1,5.1,11,9,17.5,11.8c6.8,2.9,14,4.3,21.5,4.3   c9.7,0,19.3-2.6,27.7-7.5c8.1-4.7,15-11.5,19.7-19.6l6.2-10.4L117.8,104.2z M64.6,73.6c8.8-7.3,21.9-6.5,25.2-6.1L76.4,78.6   l0.8-8.1c0-0.3-0.2-0.6-0.5-0.6c-0.3,0-0.6,0.2-0.6,0.5l-0.9,9.2l-4.9,4.1l0.8-8.1c0-0.3-0.2-0.6-0.5-0.6c-0.3,0-0.6,0.2-0.6,0.5   l-0.9,9.2l-4.9,4.1l0.8-8.1c0-0.3-0.2-0.6-0.5-0.6c-0.3,0-0.6,0.2-0.6,0.5l-0.9,9.2l-9,7.5C54.2,94,55.8,80.9,64.6,73.6z    M54.6,98.1l9-7.5l9.2,0.9c0,0,0,0,0.1,0c0.3,0,0.5-0.2,0.6-0.5c0-0.3-0.2-0.6-0.5-0.6l-8.1-0.8l4.9-4.1l9.2,0.9c0,0,0,0,0.1,0   c0.3,0,0.5-0.2,0.6-0.5c0-0.3-0.2-0.6-0.5-0.6L71,84.5l4.9-4.1l9.2,0.9c0,0,0,0,0.1,0c0.3,0,0.5-0.2,0.6-0.5c0-0.3-0.2-0.6-0.5-0.6   l-8.1-0.8l13.3-11.1c-0.3,3.3-1.9,16.3-10.7,23.6C71,99.3,57.9,98.4,54.6,98.1z"/>
</g>
</svg>